<svg width="94" height="95" viewBox="0 0 94 95" fill="none" xmlns="http://www.w3.org/2000/svg">
<path d="M93.9839 47.5054C93.9839 73.454 72.9484 94.4895 46.9998 94.4895C21.0511 94.4895 0.015625 73.454 0.015625 47.5054C0.015625 21.5568 21.0511 0.52124 46.9998 0.52124C72.9484 0.52124 93.9839 21.5568 93.9839 47.5054Z" fill="white"/>
<path fill-rule="evenodd" clip-rule="evenodd" d="M55.1392 27.0625H47.1723V19.8542H55.1392V27.0625ZM36.3599 35.7882H28.5826V28.58H36.3599V35.7882ZM45.8444 35.7882H37.8774V28.58H45.8444V35.7882ZM55.1392 35.7882H47.1723V28.58H55.1392V35.7882ZM27.0651 44.5139H19.0981V37.3057H27.0651V44.5139ZM36.3599 44.5139H28.5826V37.3057H36.3599V44.5139ZM45.8444 44.5139H37.8774V37.3057H45.8444V44.5139ZM55.1392 44.5139H47.1723V37.3057H55.1392V44.5139ZM64.6237 44.5139H56.6568V37.3057H64.6237V44.5139Z" fill="black"/>
<path d="M90.0422 41.2894C90.0422 41.2894 86.6278 38.0646 79.6093 39.2028C78.8505 33.7018 72.9701 30.4771 72.9701 30.4771C72.9701 30.4771 67.4691 37.1162 71.4526 44.5141C70.3145 45.0832 68.4176 45.8419 65.5722 45.8419H13.4075C12.459 49.446 12.459 73.347 38.6363 73.347C57.4156 73.347 71.4526 64.6212 78.0918 48.6873C87.9556 49.446 90.0422 41.2894 90.0422 41.2894Z" fill="black"/>
</svg>
