<svg width="30" height="29" viewBox="0 0 30 29" fill="none" xmlns="http://www.w3.org/2000/svg">
<path d="M14.6808 0.0556641C6.57454 0.0556641 0 6.62898 0 14.7364C0 21.2229 4.20604 26.7257 10.0404 28.6673C10.7732 28.8031 11.0106 28.348 11.0106 27.9614V25.2283C6.92688 26.1165 6.07662 23.496 6.07662 23.496C5.40864 21.7991 4.44583 21.3477 4.44583 21.3477C3.11355 20.4362 4.54737 20.4558 4.54737 20.4558C6.02156 20.5586 6.7972 21.9692 6.7972 21.9692C8.10623 24.2129 10.2313 23.5645 11.0693 23.1889C11.2002 22.2408 11.5807 21.5924 12.0015 21.2266C8.74118 20.8534 5.31322 19.5945 5.31322 13.9706C5.31322 12.3667 5.88699 11.0577 6.82534 10.03C6.67363 9.65934 6.17082 8.16557 6.96847 6.14452C6.96847 6.14452 8.20166 5.75058 11.0069 7.64929C12.1777 7.32387 13.4329 7.16116 14.6808 7.15504C15.9286 7.16116 17.1851 7.32387 18.3583 7.64929C21.1611 5.75058 22.3918 6.14452 22.3918 6.14452C23.1907 8.16679 22.6879 9.66056 22.5362 10.03C23.4782 11.0577 24.0471 12.3679 24.0471 13.9706C24.0471 19.6092 20.613 20.851 17.3441 21.2143C17.8702 21.6694 18.351 22.5625 18.351 23.9327V27.9614C18.351 28.3516 18.5859 28.8104 19.3309 28.666C25.1604 26.7221 29.3615 21.2204 29.3615 14.7364C29.3615 6.62898 22.7882 0.0556641 14.6808 0.0556641Z" fill="url(#paint0_linear_751_6265)"/>
<defs>
<linearGradient id="paint0_linear_751_6265" x1="14.6808" y1="0.0556641" x2="14.6808" y2="28.6932" gradientUnits="userSpaceOnUse">
<stop stop-color="#9E2896"/>
<stop offset="1" stop-color="#18837E"/>
</linearGradient>
</defs>
</svg>
