<svg width="233" height="50" viewBox="0 0 233 50" fill="none" xmlns="http://www.w3.org/2000/svg">
<g clip-path="url(#clip0_751_3089)">
<path d="M24.8782 0.00585938C11.1513 0.00585938 0 11.1572 0 24.884C0 38.6109 11.1513 49.7622 24.8782 49.7622C38.605 49.7622 49.7564 38.6109 49.7564 24.884C49.7564 11.1572 38.605 0.00585938 24.8782 0.00585938ZM24.8782 47.2689C12.5213 47.2689 2.4933 37.2135 2.4933 24.884C2.4933 12.5545 12.5213 2.49916 24.8782 2.49916C37.2351 2.49916 47.2631 12.5545 47.2631 24.884C47.2631 37.2135 37.2351 47.2689 24.8782 47.2689Z" fill="white"/>
<path d="M33.755 8.93811C33.6728 8.88331 33.5632 8.85591 33.4536 8.85591C33.1248 8.85591 32.8782 9.1025 32.8782 9.43129V17.2126C32.8782 17.4866 32.659 17.7057 32.385 17.7057H17.3156C17.0417 17.7057 16.8499 17.4866 16.8225 17.2126V9.43129C16.8225 9.32169 16.7951 9.2395 16.7403 9.1299C16.5759 8.85591 16.2197 8.77371 15.9457 8.93811C10.3837 12.363 7.01367 18.3085 7.01367 24.8843C7.01367 31.46 10.3837 37.4055 16.0005 40.8304C16.0827 40.8852 16.1923 40.9126 16.3019 40.9126C16.6307 40.9126 16.8773 40.666 16.8773 40.3372V32.5559C16.8773 32.2819 17.0965 32.0902 17.3704 32.0628H32.4398C32.7138 32.0628 32.933 32.2819 32.933 32.5559V40.3372C32.933 40.4468 32.9604 40.529 33.0152 40.6386C33.1796 40.9126 33.5358 40.9948 33.8098 40.8304C39.4265 37.4055 42.7966 31.46 42.7966 24.8843C42.7966 18.3085 39.3717 12.363 33.755 8.93811ZM13.973 34.6383L14.0552 35.5698L13.4524 34.83C8.822 28.9941 8.822 20.747 13.4524 14.9111L13.973 14.2535L14.0552 14.1713L13.973 15.1303C13.8908 15.8974 13.8634 16.692 13.8634 17.4866V32.2545C13.8634 33.0491 13.9182 33.8437 13.973 34.6383ZM32.8782 28.6105C32.8782 28.8845 32.659 29.1037 32.385 29.1037H17.3156C17.0417 29.1037 16.8499 28.8845 16.8225 28.6105V21.158C16.8225 20.884 17.0417 20.6648 17.3156 20.6648H32.385C32.659 20.6648 32.8782 20.884 32.8782 21.158V28.6105ZM36.2757 34.83L35.6729 35.5698L35.7551 34.6383C35.8373 33.8711 35.8647 33.0765 35.8647 32.2819V17.4866C35.8647 16.692 35.8373 15.8974 35.7551 15.1303L35.7277 14.7193L35.7003 14.2809V14.1713L36.2757 14.9111C38.5224 17.7057 39.7553 21.2676 39.7553 24.8569C39.7553 28.4461 38.5224 32.0354 36.2757 34.83Z" fill="white"/>
<path d="M87.2926 24.4457C87.1556 24.3909 86.9912 24.3361 86.9912 24.1717C86.9912 24.0621 87.046 23.9799 87.1556 23.9251C87.3474 23.8429 92.0874 22.1442 92.0874 16.5548C92.0874 10.3352 87.8954 6.6364 80.8264 6.6364H63.7021V43.1865H82.3882C87.8406 43.1865 93.7039 39.3232 93.7039 33.1037C93.7039 27.1581 89.2105 25.0758 87.2926 24.4457ZM72.3328 14.1163C72.3328 13.9793 72.4424 13.8697 72.5794 13.8697H79.3743C81.621 13.8697 83.1553 15.3766 83.1553 17.6233C83.1553 19.3769 81.7854 21.2674 79.2099 21.2674H72.5794C72.4424 21.2674 72.3328 21.1578 72.3328 21.0208V14.1163ZM79.3743 35.9806H72.5794C72.4424 35.9806 72.3328 35.871 72.3328 35.734V28.4459C72.3328 28.3089 72.4424 28.1993 72.5794 28.1993H79.2099C82.4704 28.1993 84.3335 29.5966 84.3335 32.0625C84.3335 34.6106 82.6074 35.9806 79.3743 35.9806ZM151.543 21.1852L150.228 20.9112C147.269 20.281 144.392 19.4865 144.392 16.9384C144.392 14.3903 146.776 13.2395 149.132 13.2395C151.899 13.2395 154.639 14.4725 156.721 16.6096L162.146 11.2394C159.817 8.66391 155.68 5.70483 148.995 5.70483C140.94 5.70483 135.515 10.2804 135.515 17.1028C135.515 24.3087 141.186 27.0212 145.954 28.0349L147.241 28.3089C151.872 29.2953 154.064 30.035 154.064 32.6653C154.064 35.0216 151.954 36.5834 148.83 36.5834C145.159 36.5834 141.899 34.9668 139.433 31.9256L133.871 37.3779C136.83 40.885 140.748 44.0633 148.94 44.0633C155.927 44.0633 163.023 40.0082 163.023 32.2269C162.996 24.2539 157.571 22.4455 151.543 21.1852ZM223.739 6.6364V20.007C223.739 20.144 223.629 20.2536 223.492 20.2536H212.259C212.122 20.2536 212.012 20.144 212.012 20.007V6.6364H202.806V43.1865H212.012V28.8295C212.012 28.6925 212.122 28.5829 212.259 28.5829H223.492C223.629 28.5829 223.739 28.6925 223.739 28.8295V43.1865H233V6.6364H223.739ZM184.285 35.7066C180.147 35.7066 175.681 32.2543 175.681 24.6649C175.681 17.7329 179.873 14.1163 184.011 14.1163C187.024 14.1163 189.134 15.3766 190.806 18.1713L197.874 13.4861C194.258 8.17073 189.956 5.75963 183.956 5.75963C172.202 5.75963 166.941 15.267 166.941 24.6649C166.941 36.0902 173.9 44.0633 183.846 44.0633C191.244 44.0633 194.614 41.3508 198.148 36.3368L191.025 31.542C189.436 34.1175 187.709 35.7066 184.285 35.7066ZM114.39 5.70483C104.335 5.70483 97.5946 13.4039 97.5946 24.884C97.5946 36.3642 104.335 44.0633 114.39 44.0633C124.445 44.0633 131.186 36.3642 131.186 24.884C131.186 13.4039 124.445 5.70483 114.39 5.70483ZM114.39 35.7066C109.458 35.7066 106.28 31.4598 106.28 24.884C106.28 18.3357 109.458 14.1163 114.39 14.1163C119.349 14.1163 122.555 18.3357 122.555 24.884C122.555 31.4598 119.349 35.7066 114.39 35.7066Z" fill="white"/>
</g>
<defs>
<clipPath id="clip0_751_3089">
<rect width="233" height="49.7688" fill="white"/>
</clipPath>
</defs>
</svg>
