<svg width="97" height="96" viewBox="0 0 97 96" fill="none" xmlns="http://www.w3.org/2000/svg">
<path d="M96.4365 48.0056C96.4365 74.4802 74.9746 95.9421 48.5 95.9421C22.0254 95.9421 0.563477 74.4802 0.563477 48.0056C0.563477 21.531 22.0254 0.0690918 48.5 0.0690918C74.9746 0.0690918 96.4365 21.531 96.4365 48.0056Z" fill="white"/>
<path d="M83.6956 77.7284L82.3746 76.4698C81.7218 75.609 81.0275 74.847 80.2707 74.1527L80.2577 74.1423C79.481 73.4367 78.674 72.7657 77.8366 72.1295C77.1657 71.6683 76.2433 71.1126 75.0696 70.4625C74.1048 70.0282 73.3506 69.2663 72.9424 68.3196L72.932 68.2936L72.8071 68.2312C73.3584 68.1766 73.863 68.0752 74.3467 67.9322L74.2868 67.9478L75.7692 67.5395C76.3829 67.347 77.0928 67.2222 77.8288 67.1936H77.8444C78.6194 67.1624 79.3501 67.0376 80.0471 66.8321L79.9821 66.8477C80.3184 66.7645 80.6643 66.67 81.0197 66.5643C81.3751 66.4585 81.6793 66.364 81.9325 66.2808V65.8413C81.6811 65.4651 81.3768 65.0351 81.0197 64.5514C80.679 64.0885 80.2967 63.6855 79.8676 63.3344L79.8546 63.324C78.7641 62.36 77.6346 61.4273 76.4661 60.5258C75.4363 59.7222 74.2686 58.903 73.0568 58.1437L72.8799 58.0397C72.2402 57.6184 71.5069 57.2283 70.7345 56.9084L70.6461 56.8772C69.8694 56.5617 69.1039 56.2158 68.3498 55.8396C68.0975 55.7148 67.8037 55.6055 67.4994 55.5301L67.4708 55.5249C67.1665 55.4625 66.9065 55.3065 66.7166 55.0854L66.714 55.0828C66.3552 54.6095 66.0405 54.0712 65.7908 53.4991L65.77 53.4471C65.5187 52.8594 65.2465 52.295 64.9535 51.7541C64.3241 50.5371 63.7156 49.3001 63.1279 48.0431C62.5401 46.7862 61.9758 45.5275 61.4349 44.2671C61.0587 43.428 60.7128 42.5898 60.3973 41.7524C60.0488 40.8318 59.6561 40.0438 59.1984 39.3027L59.2323 39.3625C58.1088 37.4485 56.988 35.8153 55.7709 34.2628L55.8437 34.3616C54.6397 32.8429 53.3914 31.4854 52.0495 30.2268L52.0287 30.2086C50.705 28.9655 49.2799 27.7796 47.7846 26.6822L47.6572 26.5912C46.1038 25.4626 44.4048 24.3513 42.5601 23.2573C41.819 22.8204 40.9582 22.4641 40.0506 22.2353L39.983 22.2197L37.0886 21.4967L35.4528 21.3719C34.9084 21.3303 34.3632 21.3095 33.8171 21.3095C33.4322 21.1066 33.1019 20.8648 32.8106 20.5839C32.5246 20.3109 32.2151 20.0534 31.8926 19.8168L31.8666 19.7985C30.2933 18.8806 28.4651 18.0406 26.5537 17.38L26.3327 17.3124C25.8308 17.0186 25.2274 16.8469 24.5851 16.8469C24.1274 16.8469 23.6879 16.9353 23.2874 17.094L23.3108 17.0862C22.3226 17.4789 21.5685 18.2772 21.2434 19.2706L21.2356 19.2966C21.0457 19.7439 20.9365 20.2614 20.9365 20.8076C20.9365 21.7646 21.2746 22.641 21.8389 23.3249L21.8337 23.3171C22.7768 24.574 23.4998 25.5622 24.0026 26.2817C24.3788 26.7862 24.7671 27.3107 25.1676 27.8551C25.5343 28.344 25.8594 28.9031 26.122 29.4934L26.1428 29.548C26.2885 29.8575 26.4159 30.2268 26.5095 30.6064L26.5173 30.6481C26.6005 31.0052 26.7054 31.3935 26.832 31.8131C27.2082 32.777 27.5645 33.7652 27.9008 34.7777C28.2675 35.883 28.6732 36.8192 29.1439 37.7112L29.0945 37.6071C29.3458 38.0683 29.5981 38.5191 29.8512 38.9594C30.1043 39.3998 30.3765 39.8297 30.6678 40.2493C30.8368 40.5041 31.0501 40.7148 31.2945 40.8786L31.3023 40.8838C31.5598 41.0711 31.7288 41.3649 31.7418 41.6978C31.4454 42.1347 31.2451 42.66 31.1775 43.2243L31.1749 43.2399C31.0839 43.8979 30.9538 44.483 30.777 45.0473L30.7978 44.9693C30.2179 46.7013 29.885 48.6985 29.885 50.7711C29.885 51.4421 29.9188 52.1026 29.989 52.7553L29.9812 52.6747C30.1373 55.1661 30.8888 57.4545 32.0929 59.4362L32.0565 59.3711C32.5688 60.1383 33.1175 60.8067 33.7234 61.4178C34.1603 61.9067 34.7949 62.2135 35.5022 62.2135C35.8975 62.2135 36.272 62.1173 36.5996 61.9457L36.5866 61.9509C37.4968 61.6232 38.1444 60.791 38.1912 59.8002V59.795C38.316 58.5624 38.5033 57.4597 38.7607 56.3831L38.7269 56.5574C38.7893 56.3935 38.8257 56.2063 38.8257 56.0086C38.8257 55.9696 38.8231 55.9306 38.8205 55.8916V55.8968C38.7997 55.7078 38.915 55.5293 39.1664 55.3611V55.4859C39.4178 56.0736 39.6796 56.6605 39.9518 57.2465C40.2239 57.8325 40.5065 58.4193 40.7995 59.0071C41.5667 60.1747 42.3807 61.1941 43.2753 62.1329L43.2675 62.1251C44.1647 63.0925 45.1425 63.9611 46.1983 64.7283L46.2555 64.7673C46.8068 65.1886 47.2905 65.6437 47.7274 66.1404L47.7378 66.1508C48.1487 66.6345 48.6402 67.0324 49.1941 67.3314L49.2201 67.3444V67.282H49.345C49.2435 67.0558 49.0797 66.8737 48.8769 66.7489L48.8717 66.7463C48.6662 66.6319 48.4894 66.5175 48.3229 66.3926L48.3359 66.4004C47.9597 66.0242 47.5714 65.6047 47.1709 65.1418C46.7704 64.6789 46.4037 64.2385 46.0709 63.8207C45.1901 62.6036 44.3502 61.332 43.5509 60.0057C42.7517 58.6794 41.9967 57.3314 41.2858 55.9618C40.9495 55.2909 40.6244 54.5991 40.3106 53.8866C39.9968 53.174 39.6926 52.4823 39.3978 51.8113C39.2704 51.5539 39.182 51.2574 39.1482 50.9428V50.9298C39.1326 50.6307 38.9609 50.3732 38.7113 50.2406L38.7061 50.238C38.3914 50.7737 38.043 51.2366 37.6451 51.6553L37.6477 51.6527C37.2342 52.087 36.8961 52.5993 36.6543 53.161L36.6413 53.1948C36.2746 54.0842 36.0067 55.1166 35.8897 56.1959L35.8845 56.2453C35.7597 57.3566 35.634 58.4991 35.5074 59.6728L35.3826 59.7352L35.3202 59.7976C34.644 59.6598 34.0875 59.2281 33.7858 58.6456L33.7806 58.6326C33.4651 58.0241 33.1825 57.4259 32.9329 56.8382C32.2879 55.1817 31.8874 53.265 31.8328 51.2626V51.2392C31.8094 50.922 31.799 50.5501 31.799 50.1782C31.799 48.4462 32.0721 46.7767 32.5766 45.2111L32.5454 45.3256C32.6702 44.8644 32.9424 44.0877 33.362 42.9955C33.7815 41.9032 33.8656 41.1482 33.6142 40.7304C33.4842 40.3013 33.2423 39.9398 32.9251 39.6642L32.9225 39.6616C32.6052 39.3859 32.3165 39.0972 32.0513 38.7904L32.0435 38.78C31.7505 38.357 31.4679 37.9062 31.1957 37.4277C30.9235 36.9492 30.6825 36.4776 30.4727 36.013C30.0437 35.0196 29.6042 33.7739 29.2401 32.4944L29.1829 32.263C28.7694 30.7937 28.3091 29.5506 27.763 28.3544L27.8306 28.5208C27.5419 27.8655 27.2065 27.2985 26.8164 26.781L26.832 26.8018C26.409 26.2366 26.031 25.7018 25.6981 25.1973C25.2751 24.6529 24.8556 24.1285 24.4395 23.624C24.0156 23.1117 23.6385 22.5343 23.3316 21.9154L23.3082 21.8634C23.1834 21.6111 23.0742 21.3173 22.9988 21.013L22.9936 20.9844C22.965 20.8934 22.9494 20.7868 22.9494 20.6801C22.9494 20.4669 23.0118 20.2666 23.121 20.1002L23.1184 20.1054C23.147 19.9598 23.2146 19.8324 23.3082 19.7283C23.4096 19.6373 23.5397 19.5697 23.6801 19.5411H23.6853C23.9064 19.3981 24.1742 19.3122 24.4655 19.3122C24.6839 19.3122 24.8946 19.3617 25.0792 19.4501L25.0714 19.4475C25.6409 19.6087 26.1012 19.7699 26.5511 19.9546L26.4575 19.9208C27.2533 20.2571 27.9875 20.5822 28.6602 20.896C29.4351 21.2653 30.0957 21.6553 30.7198 22.0896L30.673 22.0584C31.0093 22.2682 31.3448 22.4988 31.6794 22.7502C32.014 23.0016 32.3703 23.2538 32.7482 23.5069H33.6298C34.3008 23.5069 35.0133 23.539 35.7675 23.6032C36.5294 23.663 37.2342 23.806 37.9051 24.0296L37.8427 24.0114C39.0936 24.3833 40.1676 24.8228 41.187 25.3507L41.0804 25.3013C42.1085 25.8249 43.0837 26.3805 44.006 26.9683C45.5377 27.9227 46.8614 28.9005 48.1071 29.9693L48.0629 29.9329C49.3632 31.0459 50.5438 32.1876 51.6516 33.3942L51.6776 33.4254C52.7595 34.6061 53.7919 35.8882 54.7359 37.2327L54.8165 37.3549C55.6851 38.5823 56.5615 40.0022 57.3494 41.4741L57.4587 41.6952C57.6693 42.0957 57.8826 42.5872 58.0672 43.0891L58.0958 43.1749C58.264 43.6569 58.4521 44.151 58.6601 44.6572C59.1213 45.7061 59.6154 46.7645 60.1424 47.8325C60.6695 48.9005 61.1636 49.9389 61.6248 50.948L63.0082 53.9672C63.4946 55.023 64.0381 55.9332 64.67 56.7732L64.6414 56.7342C65.1693 57.2985 65.8741 57.6938 66.6646 57.8316L66.6854 57.8342C67.6424 58.0735 68.4486 58.3439 69.2288 58.6638L69.1065 58.6196C69.4784 58.7886 69.9569 58.9681 70.4484 59.1267L70.5525 59.1553C71.1038 59.3243 71.5823 59.548 72.0218 59.8288L71.9984 59.8158C72.8487 60.2917 73.5691 60.7598 74.2556 61.2696L74.201 61.2305C74.9136 61.7541 75.6261 62.2482 76.3387 62.7129C76.675 62.9642 77.2393 63.3309 78.0316 63.8129C78.8239 64.2949 79.2435 64.7456 79.2903 65.1652C78.9938 65.1548 78.6428 65.147 78.2917 65.147C77.0122 65.147 75.7536 65.2302 74.5209 65.3914L74.6665 65.3758C73.2726 65.5631 72.0088 65.9037 70.8203 66.39L70.9243 66.3536C70.6305 66.4811 70.2794 66.5981 69.9153 66.6891L69.8659 66.6995C69.4966 66.7541 69.2106 67.0506 69.1742 67.4199C69.3328 67.6175 69.4602 67.8489 69.546 68.0986L69.5512 68.1142C69.6397 68.3795 69.7463 68.6083 69.8763 68.8216L69.8685 68.806C70.178 69.3547 70.5108 69.828 70.8853 70.2649L70.8749 70.2519C71.2416 70.7044 71.6551 71.097 72.1128 71.4325L72.131 71.4455C72.554 71.7818 72.9944 72.1277 73.4521 72.4831C73.8708 72.8108 74.3441 73.1333 74.8356 73.4245L74.898 73.4583C75.6365 73.9108 76.4947 74.3425 77.3893 74.704L77.5089 74.7456C78.4815 75.1357 79.3163 75.5882 80.0913 76.1265L80.0497 76.0979C80.5542 76.3909 81.0569 76.716 81.558 77.0731C82.059 77.4302 82.541 77.7761 83.0039 78.1107C83.1937 78.298 83.3602 78.506 83.5006 78.7323L83.5084 78.7453C83.745 79.0157 84.0727 79.2004 84.4446 79.2472H84.4524V79.1223C84.2236 78.9481 84.0545 78.7063 83.9739 78.428L83.9713 78.4176C83.9063 78.1523 83.8101 77.9209 83.68 77.7076L83.6852 77.718L83.6956 77.7284ZM35.3878 27.7848C35.0515 27.7848 34.7368 27.7952 34.4438 27.8161C34.1447 27.8369 33.8665 27.8915 33.6038 27.9799L33.6272 27.9721V28.0345H33.752C33.9202 28.2859 34.1317 28.5685 34.3866 28.8823C34.6414 29.1961 34.872 29.5003 35.0783 29.7951L36.0847 31.8703L36.2096 31.8079C36.5034 31.5947 36.7297 31.3086 36.8649 30.9731L36.8701 30.9601C37.0053 30.5986 37.0833 30.1774 37.0833 29.7405C37.0833 29.6937 37.0833 29.6468 37.0807 29.6V29.6078C36.9637 29.4934 36.8675 29.3582 36.7999 29.2073L36.7973 29.1995L36.5866 28.7262C36.4488 28.5078 36.2564 28.3362 36.0301 28.2269L36.0223 28.2243C35.7779 28.1073 35.5698 27.9591 35.3878 27.7848Z" fill="black"/>
</svg>
