<svg width="510" height="510" viewBox="0 0 510 510" fill="none" xmlns="http://www.w3.org/2000/svg">
<circle cx="255" cy="255" r="255" fill="white"/>
<mask id="mask0_1882_4401" style="mask-type:luminance" maskUnits="userSpaceOnUse" x="55" y="55" width="399" height="399">
<path d="M454 55H55V454H454V55Z" fill="white"/>
</mask>
<g mask="url(#mask0_1882_4401)">
<path d="M241.434 55.1074C240.577 55.1854 237.845 55.4584 235.388 55.6534C178.717 60.7628 125.634 91.3411 92.0137 138.34C73.2923 164.472 61.3185 194.114 56.7941 225.511C55.195 236.472 55 239.709 55 254.568C55 269.429 55.195 272.666 56.7941 283.625C67.6369 358.551 120.954 421.501 193.265 444.825C206.214 448.997 219.865 451.845 235.388 453.561C241.434 454.224 267.566 454.224 273.612 453.561C300.407 450.597 323.106 443.967 345.494 432.539C348.927 430.783 349.588 430.316 349.121 429.925C348.809 429.691 334.184 410.073 316.631 386.359L284.728 343.261L244.749 284.094C222.751 251.566 204.654 224.966 204.498 224.966C204.342 224.926 204.186 251.215 204.108 283.313C203.991 339.517 203.952 341.78 203.25 343.105C202.236 345.016 201.456 345.796 199.818 346.654C198.57 347.279 197.478 347.395 191.588 347.395H184.841L183.047 346.265C181.877 345.523 181.018 344.548 180.433 343.417L179.614 341.662L179.692 263.461L179.809 185.221L181.018 183.7C181.643 182.881 182.969 181.828 183.905 181.321C185.504 180.541 186.128 180.463 192.875 180.463C200.832 180.463 202.158 180.775 204.225 183.037C204.81 183.661 226.457 216.267 252.355 255.544C278.252 294.819 313.667 348.448 331.063 374.775L362.656 422.632L364.255 421.58C378.413 412.374 393.39 399.269 405.246 385.618C430.481 356.639 446.745 321.303 452.206 283.625C453.805 272.666 454 269.429 454 254.568C454 239.709 453.805 236.472 452.206 225.511C441.363 150.587 388.045 87.6359 315.735 64.3121C302.98 60.1778 289.408 57.3306 274.197 55.6144C270.452 55.2244 244.671 54.7954 241.434 55.1074ZM323.106 175.782C324.978 176.719 326.5 178.513 327.045 180.385C327.357 181.399 327.436 203.085 327.357 251.955L327.241 322.082L314.877 303.126L302.473 284.172V233.195C302.473 200.237 302.629 181.711 302.864 180.814C303.487 178.63 304.852 176.914 306.724 175.899C308.323 175.08 308.909 175.002 315.033 175.002C320.805 175.002 321.82 175.08 323.106 175.782Z" fill="black"/>
</g>
</svg>
