<svg width="95" height="95" viewBox="0 0 95 95" fill="none" xmlns="http://www.w3.org/2000/svg">
<path d="M94.3335 47.1562C94.3335 73.1049 73.298 94.1404 47.3494 94.1404C21.4007 94.1404 0.365234 73.1049 0.365234 47.1562C0.365234 21.2076 21.4007 0.172119 47.3494 0.172119C73.298 0.172119 94.3335 21.2076 94.3335 47.1562Z" fill="white"/>
<g clip-path="url(#clip0_810_2963)">
<path d="M81.7246 31.6192V63.8459C81.7246 65.9373 80.5993 67.8847 78.7911 68.9373L50.8688 85.0595C49.9757 85.5776 48.9627 85.8437 47.9283 85.8437C46.9086 85.8437 45.893 85.5776 44.9997 85.0595L35.6766 79.5436C34.2859 78.7671 34.9646 78.4909 35.4243 78.3315C37.2815 77.687 37.6571 77.5385 39.6396 76.4134C39.8465 76.2952 40.1192 76.3414 40.3326 76.4646L47.495 80.7173C47.7546 80.8636 48.1213 80.8636 48.36 80.7173L76.2846 64.5996C76.5446 64.451 76.7113 64.1547 76.7113 63.8461V31.6192C76.7113 31.3036 76.5446 31.0087 76.278 30.8493L48.3649 14.7459C48.1075 14.5953 47.764 14.5953 47.5048 14.7459L19.598 30.8538C19.3269 31.0089 19.1558 31.3129 19.1558 31.6192V63.8459C19.1558 64.1544 19.3267 64.4437 19.5963 64.59L27.246 69.012C31.3959 71.0852 33.9378 68.6414 33.9378 66.1853V34.369C33.9378 33.9191 34.2991 33.5644 34.7488 33.5644H38.29C38.7327 33.5644 39.0995 33.919 39.0995 34.369V66.1854C39.0995 71.7246 36.0819 74.9021 30.8305 74.9021C29.2177 74.9021 27.9455 74.9021 24.3978 73.1554L17.0764 68.9373C15.2671 67.8942 14.1479 65.9375 14.1479 63.8459V31.6192C14.1479 29.5252 15.2671 27.5706 17.0764 26.529L44.9999 10.3931C46.767 9.39386 49.1168 9.39386 50.8688 10.3931L78.7911 26.529C80.5993 27.575 81.7246 29.5252 81.7246 31.6192ZM57.6546 60.7718C49.3218 60.7718 47.4884 58.677 46.8742 54.5332C46.803 54.091 46.4241 53.7616 45.9701 53.7616H41.8982C41.3939 53.7616 40.9892 54.1646 40.9892 54.6718C40.9892 59.9745 43.8752 66.2988 57.6546 66.2988C67.6316 66.2988 73.3523 62.3711 73.3523 55.511C73.3523 48.7077 68.7554 46.8979 59.0802 45.6169C49.3011 44.3229 48.3074 43.6565 48.3074 41.3658C48.3074 39.4778 49.1488 36.9547 56.392 36.9547C62.8599 36.9547 65.2445 38.3489 66.225 42.7072C66.3113 43.118 66.6847 43.4177 67.1082 43.4177H71.1954C71.4489 43.4177 71.6897 43.3089 71.862 43.128C72.0347 42.9371 72.1264 42.6885 72.1022 42.4279C71.4698 34.9157 66.4785 31.4163 56.3919 31.4163C47.4135 31.4163 42.0588 35.206 42.0588 41.5567C42.0588 48.4486 47.3867 50.3548 56.0015 51.2051C66.3113 52.2164 67.1115 53.7226 67.1115 55.7514C67.1115 59.2705 64.2881 60.7718 57.6546 60.7718Z" fill="black"/>
</g>
<defs>
<clipPath id="clip0_810_2963">
<rect width="76.3492" height="76.3492" fill="white" transform="translate(9.76172 9.56909)"/>
</clipPath>
</defs>
</svg>
