<svg width="510" height="510" viewBox="0 0 510 510" fill="none" xmlns="http://www.w3.org/2000/svg">
<circle cx="255" cy="255" r="255" fill="white"/>
<path d="M444.361 325.919C442.012 318.805 435.858 313.85 427.901 312.661C424.148 312.101 419.851 312.34 414.766 313.388C405.903 315.217 399.327 315.913 394.528 316.047C412.642 285.464 427.371 250.589 435.851 217.759C449.562 164.675 442.235 140.491 433.673 129.553C411.014 100.599 377.955 85.0452 338.072 84.5693C316.796 84.3091 298.119 88.5098 288.375 91.5306C279.304 89.9299 269.549 89.0362 259.315 88.8709C240.129 88.5649 223.178 92.7472 208.694 101.343C200.675 98.6312 187.805 94.8085 172.943 92.3692C137.988 86.6306 109.815 91.1021 89.2078 105.66C64.2547 123.286 52.6871 153.91 54.8265 196.682C55.506 210.262 63.1024 251.58 75.0632 290.765C81.9374 313.288 89.2675 331.992 96.8502 346.361C107.604 366.737 119.11 378.736 132.027 383.046C139.267 385.457 152.422 387.147 166.257 375.624C168.011 377.748 170.351 379.858 173.456 381.818C177.399 384.305 182.221 386.337 187.037 387.542C204.392 391.88 220.649 390.795 234.518 384.714C234.603 387.181 234.669 389.537 234.724 391.573C234.816 394.873 234.908 398.11 235.029 401.137C235.851 421.603 237.243 437.517 241.369 448.651C241.595 449.263 241.9 450.197 242.221 451.187C244.28 457.489 247.721 468.039 256.478 476.301C265.545 484.86 276.512 487.484 286.557 487.484C291.595 487.484 296.402 486.823 300.618 485.92C315.645 482.699 332.713 477.793 345.059 460.213C356.732 443.594 362.407 418.563 363.434 379.122C363.567 378.006 363.689 376.941 363.807 375.927L364.052 373.842L366.802 374.084L367.51 374.132C382.816 374.83 401.532 371.584 413.026 366.244C422.108 362.03 451.213 346.664 444.361 325.919Z" fill="black"/>
<path d="M418.189 329.953C372.678 339.342 369.549 323.933 369.549 323.933C417.6 252.632 437.689 162.125 420.355 139.974C373.062 79.5499 291.199 108.127 289.832 108.867L289.393 108.947C280.401 107.08 270.339 105.969 259.029 105.784C238.437 105.447 222.816 111.183 210.962 120.172C210.962 120.172 64.9251 60.0095 71.7181 195.836C73.1627 224.731 113.134 414.475 160.809 357.164C178.235 336.206 195.073 318.487 195.073 318.487C203.434 324.042 213.446 326.876 223.94 325.858L224.756 325.167C224.502 327.768 224.618 330.313 225.082 333.326C212.8 347.048 216.41 349.457 191.858 354.512C167.013 359.632 181.608 368.747 191.137 371.131C202.689 374.018 229.414 378.111 247.472 352.831L246.753 355.716C251.564 359.571 254.943 380.787 254.377 400.021C253.81 419.254 253.432 432.459 257.223 442.773C261.017 453.088 264.795 476.295 297.072 469.379C324.041 463.599 338.017 448.622 339.962 423.639C341.341 405.878 344.464 408.504 344.66 392.624L347.165 385.107C350.053 361.031 347.624 353.263 364.239 356.876L368.279 357.231C380.506 357.787 396.513 355.263 405.907 350.897C426.135 341.51 438.132 325.835 418.186 329.953H418.189Z" fill="white"/>
<path d="M219.51 208.758C215.409 208.187 211.695 208.715 209.816 210.138C208.76 210.939 208.432 211.866 208.343 212.504C208.108 214.195 209.292 216.065 210.021 217.029C212.08 219.759 215.089 221.635 218.067 222.049C218.499 222.11 218.929 222.137 219.356 222.137C224.321 222.137 228.837 218.27 229.235 215.416C229.733 211.842 224.543 209.457 219.51 208.758ZM355.377 208.871C354.985 206.069 349.999 205.27 345.267 205.928C340.542 206.586 335.96 208.72 336.343 211.528C336.649 213.712 340.592 217.439 345.26 217.439C345.655 217.439 346.052 217.413 346.453 217.357C349.569 216.925 351.855 214.946 352.942 213.806C354.595 212.068 355.553 210.131 355.377 208.871Z" fill="black"/>
<path d="M433.333 324.887C431.598 319.639 426.012 317.951 416.733 319.867C389.18 325.554 379.312 321.615 376.072 319.229C397.489 286.603 415.107 247.164 424.612 210.368C429.114 192.938 431.601 176.75 431.805 163.556C432.03 149.075 429.563 138.433 424.476 131.932C403.967 105.726 373.866 91.6686 337.429 91.2829C312.38 91.0013 291.216 97.4118 287.113 99.2145C278.473 97.0659 269.054 95.7468 258.799 95.5785C239.995 95.274 223.74 99.7761 210.283 108.953C204.437 106.777 189.33 101.591 170.854 98.6146C138.914 93.4728 113.532 97.3689 95.4195 110.201C73.807 125.513 63.8295 152.884 65.7622 191.551C66.4126 204.561 73.8254 244.581 85.523 282.907C100.921 333.352 117.659 361.909 135.27 367.784C137.331 368.471 139.708 368.952 142.329 368.952C148.754 368.952 156.63 366.056 164.825 356.204C174.82 344.214 185.16 332.514 195.83 321.121C202.753 324.836 210.359 326.911 218.138 327.119C218.153 327.323 218.173 327.527 218.191 327.729C216.852 329.325 215.541 330.945 214.258 332.587C208.869 339.429 207.747 340.854 190.398 344.426C185.463 345.445 172.355 348.146 172.163 357.334C171.955 367.373 187.657 371.589 189.446 372.035C195.68 373.596 201.687 374.366 207.415 374.366C221.345 374.366 233.604 369.787 243.401 360.928C243.1 396.716 244.592 431.98 248.889 442.725C252.409 451.521 261.006 473.017 288.163 473.015C292.148 473.015 296.533 472.552 301.359 471.517C329.701 465.442 342.009 452.915 346.77 425.298C349.318 410.538 353.69 375.293 355.747 356.388C360.087 357.742 365.674 358.362 371.714 358.361C384.312 358.361 398.848 355.684 407.964 351.453C418.205 346.697 436.685 335.027 433.333 324.887ZM365.838 197.137C365.744 202.718 364.976 207.785 364.162 213.074C363.285 218.762 362.379 224.643 362.151 231.782C361.926 238.729 362.794 245.952 363.633 252.938C365.328 267.047 367.068 281.573 360.333 295.906C359.215 293.924 358.218 291.875 357.349 289.771C356.512 287.742 354.694 284.482 352.177 279.971C342.384 262.409 319.453 221.284 331.192 204.502C334.689 199.507 343.563 194.372 365.838 197.137ZM338.837 102.584C371.485 103.305 397.31 115.518 415.594 138.883C429.618 156.804 414.176 238.35 369.471 308.699C369.021 308.128 368.569 307.558 368.115 306.99L367.549 306.283C379.101 287.205 376.842 268.328 374.831 251.593C374.005 244.725 373.225 238.238 373.424 232.144C373.629 225.686 374.482 220.147 375.309 214.791C376.323 208.19 377.356 201.361 377.072 193.31C377.284 192.465 377.37 191.467 377.258 190.283C376.532 182.562 367.717 159.456 349.751 138.543C339.924 127.104 325.592 114.303 306.024 105.669C314.441 103.925 325.95 102.298 338.837 102.584ZM156.153 348.994C147.124 359.85 140.889 357.768 138.839 357.086C125.479 352.63 109.977 324.392 96.3101 279.616C84.484 240.872 77.5731 201.912 77.0253 190.987C75.2991 156.436 83.6744 132.356 101.92 119.416C131.614 98.359 180.434 110.963 200.051 117.355C199.769 117.633 199.476 117.893 199.197 118.176C167.006 150.686 167.769 206.23 167.849 209.626C167.846 210.936 167.956 212.791 168.106 215.342C168.66 224.684 169.691 242.071 166.937 261.762C164.378 280.06 170.019 297.969 182.41 310.898C183.681 312.223 185.018 313.483 186.414 314.675C180.899 320.582 168.912 333.645 156.153 348.994ZM190.552 303.095C180.566 292.674 176.03 278.179 178.106 263.323C181.014 242.523 179.941 224.407 179.364 214.674C179.283 213.312 179.211 212.119 179.17 211.178C183.873 207.007 205.666 195.331 221.207 198.892C228.299 200.516 232.62 205.346 234.417 213.652C243.715 256.658 235.647 274.583 229.165 288.987C227.829 291.955 226.566 294.76 225.489 297.661L224.654 299.905C222.539 305.576 220.571 310.849 219.351 315.856C208.734 315.826 198.406 311.29 190.552 303.094V303.095ZM192.182 361.094C189.082 360.319 186.293 358.974 184.658 357.859C186.024 357.216 188.456 356.341 192.673 355.471C213.083 351.271 216.235 348.305 223.119 339.565C224.696 337.561 226.485 335.29 228.963 332.523L228.966 332.52C232.656 328.388 234.343 329.089 237.404 330.359C239.885 331.384 242.301 334.494 243.28 337.916C243.744 339.532 244.264 342.598 242.561 344.986C228.182 365.118 207.23 364.86 192.182 361.094ZM298.996 460.49C274.027 465.84 265.187 453.1 259.361 438.536C255.601 429.134 253.752 386.735 255.064 339.913C255.081 339.29 254.992 338.689 254.82 338.122C254.667 337.004 254.434 335.899 254.123 334.814C252.173 328.001 247.421 322.302 241.721 319.939C239.456 319.001 235.3 317.28 230.305 318.557C231.37 314.168 233.217 309.212 235.22 303.845L236.06 301.588C237.006 299.043 238.194 296.406 239.449 293.615C246.232 278.545 255.523 257.902 245.44 211.269C241.663 193.803 229.05 185.273 209.931 187.254C198.469 188.44 187.981 193.065 182.751 195.717C181.626 196.286 180.598 196.837 179.637 197.373C181.097 179.774 186.612 146.885 207.243 126.076C220.234 112.976 237.534 106.506 258.613 106.855C300.145 107.535 326.778 128.849 341.809 146.611C354.761 161.916 361.775 177.333 364.574 185.649C343.524 183.508 329.208 187.663 321.952 198.038C306.164 220.607 330.589 264.411 342.328 285.463C344.481 289.321 346.339 292.655 346.923 294.073C350.746 303.337 355.695 309.522 359.308 314.037C360.416 315.42 361.49 316.762 362.307 317.935C355.932 319.772 344.481 324.019 345.525 345.246C344.683 355.897 338.698 405.763 335.657 423.382C331.643 446.658 323.078 455.327 298.996 460.491V460.49ZM403.215 341.224C396.696 344.25 385.787 346.519 375.424 347.007C363.977 347.543 358.15 345.725 356.778 344.606C356.136 331.378 361.059 329.996 366.269 328.533C367.088 328.304 367.887 328.079 368.658 327.81C369.137 328.2 369.662 328.587 370.237 328.967C379.438 335.039 395.847 335.694 419.014 330.912L419.268 330.861C416.143 333.782 410.797 337.703 403.215 341.224Z" fill="black"/>
</svg>
