<svg width="100" height="101" viewBox="0 0 100 101" fill="none" xmlns="http://www.w3.org/2000/svg">
<path d="M99.9213 50.5056C99.9213 78.076 77.5711 100.426 50.0007 100.426C22.4303 100.426 0.0800781 78.076 0.0800781 50.5056C0.0800781 22.9352 22.4303 0.584961 50.0007 0.584961C77.5711 0.584961 99.9213 22.9352 99.9213 50.5056Z" fill="white"/>
<path d="M50.4136 57.2127C54.0571 57.2127 57.0108 54.259 57.0108 50.6155C57.0108 46.972 54.0571 44.0183 50.4136 44.0183C46.7701 44.0183 43.8164 46.972 43.8164 50.6155C43.8164 54.259 46.7701 57.2127 50.4136 57.2127Z" fill="black"/>
<path fill-rule="evenodd" clip-rule="evenodd" d="M50.8987 36.7096C62.1469 36.7862 74.4191 37.6068 82.8431 45.1189C83.0906 45.3399 83.3292 45.5697 83.562 45.8069C85.5494 47.8326 86.5881 51.1032 84.9837 53.7948C81.6925 59.321 74.3321 61.7312 67.206 63.2147C56.5486 65.4335 45.4049 65.4511 34.7519 63.4976C28.6217 62.3721 22.3531 60.3994 17.9967 56.2728C16.301 54.667 14.8513 52.5543 15.0782 50.203C15.4465 46.3991 19.0957 43.9579 22.1674 42.305C30.699 37.7143 41.0942 36.6875 50.8987 36.7096ZM50.0825 38.4377C39.4398 38.5099 27.9205 39.189 19.7027 45.994C19.4154 46.2312 19.1384 46.4801 18.8718 46.7409C18.6994 46.9089 18.5329 47.0842 18.3724 47.2639C16.93 48.8845 16.4336 51.4877 17.7948 53.4339C19.165 55.3918 21.2452 56.8047 23.3873 57.9567C31.3988 62.2645 40.8659 63.0291 50.0958 63.0615C59.4406 63.0954 69.0771 62.2439 77.3317 57.9759C80.6199 56.2743 84.3207 53.7757 84.1896 50.5581C84.0688 47.6057 81.1901 45.7818 79.0347 44.4795C78.4513 44.1274 77.8517 43.8018 77.2433 43.4953C69.0491 39.3894 59.4464 38.4171 50.0825 38.4377Z" fill="black"/>
<path fill-rule="evenodd" clip-rule="evenodd" d="M65.3147 19.3061C69.4295 19.4107 71.5613 24.3578 71.8427 28.0115C71.8987 28.7378 71.9193 29.467 71.9105 30.1963C71.9016 30.986 71.8589 31.7756 71.7896 32.5623C70.9219 42.3034 66.4742 51.5805 61.2368 60.1474C56.1143 68.5272 49.8678 76.8835 41.3701 80.7669C38.5606 82.0516 35.2193 82.8442 32.7324 81.4108C29.3233 79.4469 28.9506 74.8533 29.0139 71.3691C29.0302 70.5132 29.0861 69.6572 29.1745 68.8042C30.4842 56.1932 36.8767 44.2466 44.8764 33.9546C49.5436 27.9496 55.0963 21.9933 62.0132 19.8364C63.1019 19.4961 63.9667 19.2899 65.3147 19.3061ZM65.1173 21.0327C60.2865 21.1093 55.9493 24.6893 52.1086 28.4093C42.0109 38.1872 34.5696 51.1915 31.5759 64.8294C31.3446 65.8857 31.1502 66.9494 31.0072 68.0204C30.8968 68.8499 30.8157 69.6837 30.773 70.5205C30.7391 71.1864 30.7273 71.8538 30.748 72.5212C30.7627 73.0427 30.7966 73.5642 30.854 74.0828C30.8968 74.4791 30.9542 74.874 31.0264 75.2659C31.0809 75.5561 31.1443 75.8448 31.2179 76.1321C31.2783 76.3649 31.3461 76.5962 31.4227 76.826C32.0253 78.6425 33.5781 80.378 35.6627 80.4355C40.5259 80.5681 45.1047 77.022 49.0634 73.1679C56.0127 66.4043 61.1911 57.9051 65.2367 48.9714C68.5014 41.7583 71.4876 33.9177 69.8199 25.9784C69.7566 25.6779 69.6829 25.3803 69.5989 25.0856C69.5297 24.8455 69.4516 24.6083 69.3662 24.374C68.7179 22.6076 67.1931 21.0283 65.1173 21.0327Z" fill="black"/>
<path fill-rule="evenodd" clip-rule="evenodd" d="M35.84 19.3709C41.0907 19.4725 45.8065 23.0363 49.9935 27.0273C57.6338 34.3096 63.2689 43.5733 67.5443 53.3233C70.8562 60.8766 73.9028 69.3551 71.195 77.3254C70.342 79.8373 68.1837 82.1356 65.3064 82.1945C60.0307 82.3006 55.141 78.4642 50.8981 74.3347C40.2539 63.9719 32.3514 50.2913 29.6436 35.7828C29.4491 34.7457 29.2944 33.6996 29.1883 32.6492C29.1014 31.7918 29.0469 30.9299 29.0322 30.0681C29.0204 29.3727 29.0351 28.6774 29.0837 27.9849C29.1161 27.5223 29.1633 27.0627 29.2266 26.6045C29.287 26.1743 29.3637 25.7456 29.4594 25.3213C29.5228 25.0399 29.5935 24.7615 29.6745 24.4845C30.4686 21.7693 32.5341 19.3502 35.84 19.3709ZM35.6412 21.099C32.5665 21.1667 31.1595 24.7924 30.8767 27.3367C30.8192 27.8582 30.7839 28.3842 30.7677 28.9101C30.747 29.5819 30.7559 30.2552 30.7898 30.927C31.273 40.6489 35.6191 50.0483 40.8638 58.655C45.8021 66.7578 51.7658 74.8283 59.9689 78.9769C62.3378 80.1747 65.2166 81.1161 67.2629 79.9846C69.8293 78.5644 70.1446 75.1804 70.2816 72.6582C70.3184 71.9716 70.3228 71.2822 70.3007 70.5941C70.2742 69.7308 70.2065 68.869 70.1048 68.0116C69.159 60.0015 65.6114 52.4217 61.5364 45.2587C56.4655 36.3485 50.2528 27.4678 41.4605 22.8286C39.6395 21.868 37.6683 21.0828 35.6412 21.099Z" fill="black"/>
</svg>
