<svg width="100" height="99" viewBox="0 0 100 99" fill="none" xmlns="http://www.w3.org/2000/svg">
<path d="M99.508 49.3333C99.508 76.5794 77.4207 98.6667 50.1746 98.6667C22.9286 98.6667 0.841309 76.5794 0.841309 49.3333C0.841309 22.0873 22.9286 0 50.1746 0C77.4207 0 99.508 22.0873 99.508 49.3333Z" fill="white"/>
<path d="M65.5982 32.9206C67.2821 33.3123 68.8122 34.194 69.9954 35.4544C70.6472 36.1366 71.2132 36.8959 71.6807 37.7153C71.7025 37.8044 68.6464 39.8576 66.793 41.0028C66.7257 41.0483 66.4587 40.7576 66.156 40.3105C65.8175 39.7285 65.3369 39.2418 64.7592 38.8959C64.1815 38.55 63.5256 38.3562 62.8527 38.3325C60.7224 38.1861 59.3496 39.3017 59.3595 41.167C59.3411 41.6253 59.4456 42.0801 59.6621 42.4844C60.1309 43.4536 61.0013 44.0352 63.7349 45.22C68.7671 47.386 70.9271 48.8141 72.2603 50.8436C73.0139 52.1259 73.478 53.5574 73.6201 55.038C73.7623 56.5185 73.579 58.0122 73.0831 59.4144C72.4017 60.9522 71.321 62.2796 69.9533 63.2587C68.5857 64.2379 66.9809 64.8331 65.3055 64.9826C63.5246 65.1869 61.7252 65.1683 59.949 64.9272C57.2282 64.4802 54.7218 63.1743 52.7964 61.2006C52.0688 60.3814 51.453 59.4695 50.9647 58.4887C51.17 58.336 51.3862 58.1985 51.6115 58.0773C51.924 57.8993 53.1069 57.2188 54.2225 56.572L56.248 55.3852L56.6713 56.0023C57.3843 57.0219 58.2918 57.8904 59.3417 58.5579C60.402 59.1395 61.603 59.4151 62.8108 59.354C64.0185 59.2929 65.1856 58.8974 66.1818 58.2118C66.6956 57.7109 67.0168 57.0453 67.0892 56.3314C67.1615 55.6175 66.9803 54.9009 66.5774 54.3071C66.0314 53.5258 64.9158 52.8691 61.745 51.4944C59.2587 50.656 56.9941 49.2664 55.1206 47.4295C54.2283 46.4127 53.5694 45.213 53.19 43.9145C52.9094 42.4353 52.868 40.9207 53.0674 39.4283C53.4396 37.7111 54.3307 36.1498 55.6201 34.956C56.9094 33.7622 58.5346 32.9936 60.2753 32.7544C62.0479 32.5426 63.8423 32.5986 65.5982 32.9206ZM49.0955 35.854L49.1172 38.7301H39.9589V64.7373H33.5006V38.736H24.3423V35.9114C24.3179 34.944 24.3443 33.9761 24.4214 33.0116C24.455 32.9661 30.0232 32.9443 36.7742 32.9562L49.0598 32.9898L49.0955 35.854Z" fill="black"/>
</svg>
